<?xml version="1.0" standalone="no"?>
<!DOCTYPE svg PUBLIC "-//W3C//DTD SVG 20010904//EN"
 "http://www.w3.org/TR/2001/REC-SVG-20010904/DTD/svg10.dtd">
<svg version="1.0" xmlns="http://www.w3.org/2000/svg"
 width="350.000000pt" height="350.000000pt" viewBox="0 0 350.000000 350.000000"
 preserveAspectRatio="xMidYMid meet">
<metadata>
Created by potrace 1.15, written by Peter Selinger 2001-2017
</metadata>
<g transform="translate(0.000000,350.000000) scale(0.100000,-0.100000)"
fill="#000000" stroke="none">
<path d="M234 3348 c-164 -160 -228 -232 -222 -250 3 -7 79 60 172 152 187
184 237 240 212 240 -9 0 -82 -64 -162 -142z"/>
<path d="M261 3236 c-174 -174 -252 -259 -250 -271 3 -13 73 51 254 232 138
138 259 260 269 272 19 21 19 21 0 21 -12 0 -118 -99 -273 -254z"/>
<path d="M332 3167 c-287 -287 -341 -347 -315 -347 10 0 663 653 663 662 0 27
-60 -27 -348 -315z"/>
<path d="M438 3143 c-369 -367 -432 -435 -425 -455 2 -7 101 83 225 206 122
121 222 214 222 208 0 -7 -9 -21 -20 -32 -11 -11 -18 -20 -15 -20 3 0 -7 -25
-22 -55 -20 -39 -79 -105 -211 -239 -123 -123 -183 -190 -180 -202 2 -12 47
27 164 143 89 88 169 173 179 189 9 16 13 20 9 9 -17 -49 -25 -124 -22 -196 2
-42 0 -75 -3 -73 -11 6 -329 -325 -329 -342 0 -15 2 -15 23 2 12 10 88 83 168
162 129 127 148 142 154 123 3 -11 3 -26 -1 -32 -5 -8 -3 -9 6 -4 36 22 -12
-31 -173 -194 -121 -121 -178 -185 -175 -197 2 -13 49 29 175 154 95 95 177
172 182 172 5 0 7 10 4 23 -3 12 -3 19 1 16 4 -4 8 -17 10 -30 1 -13 8 -35 15
-47 7 -13 10 -26 7 -30 -3 -3 -6 -1 -6 4 0 6 -88 -78 -195 -186 -174 -175
-213 -220 -187 -220 4 0 93 86 197 190 169 169 191 188 203 173 21 -29 14 -46
-50 -112 -35 -35 -57 -61 -51 -57 7 4 13 5 13 2 0 -3 -15 -13 -32 -22 -18 -9
-58 -42 -88 -72 -30 -31 -59 -55 -63 -54 -5 1 -6 -2 -3 -7 4 -5 -2 -14 -11
-20 -10 -6 -15 -11 -12 -11 4 0 -20 -28 -52 -61 -32 -34 -59 -68 -59 -77 0
-12 8 -8 29 12 l29 28 -26 -54 c-32 -66 -33 -73 -38 -233 -4 -110 -2 -139 15
-189 19 -57 19 -86 0 -86 -5 0 -9 -10 -9 -22 0 -20 1 -20 18 -5 25 23 28 22
45 -12 14 -28 13 -30 -24 -67 -36 -35 -50 -64 -31 -64 10 0 83 75 80 81 -2 2
-2 4 -1 4 1 0 13 -18 28 -38 14 -21 21 -36 16 -33 -11 7 -131 -123 -131 -142
0 -21 30 0 90 65 l56 58 42 -40 c23 -22 42 -46 42 -53 0 -7 4 -11 9 -8 5 3 11
0 14 -8 3 -8 -47 -65 -124 -142 -115 -114 -146 -154 -122 -154 4 0 67 59 139
131 144 144 145 144 204 89 17 -16 33 -29 35 -29 3 -1 8 -1 13 -1 4 0 -4 -10
-18 -23 -14 -12 -37 -38 -50 -57 -13 -19 -30 -39 -37 -43 -7 -5 -11 -12 -8
-17 3 -4 -52 -64 -121 -132 -134 -131 -168 -171 -162 -190 3 -7 41 24 85 67
45 44 100 98 122 119 l40 39 -3 -35 c-2 -19 -9 -44 -15 -55 -5 -11 -8 -23 -5
-26 3 -3 1 -14 -6 -24 -11 -17 -11 -17 -5 2 3 11 -44 -29 -105 -90 -97 -97
-126 -135 -103 -135 4 0 26 18 48 40 l42 41 -3 -46 c-2 -37 -10 -54 -49 -100
-68 -79 -51 -93 24 -19 61 61 63 62 96 51 l35 -10 -100 -103 c-55 -57 -100
-110 -100 -119 0 -23 49 18 165 134 49 50 97 91 106 91 9 0 36 7 60 15 42 15
35 7 -126 -154 -153 -154 -191 -201 -138 -173 35 19 495 491 488 502 -12 19 1
10 66 -52 l67 -63 -191 -192 c-105 -106 -188 -196 -184 -199 13 -13 85 48 246
210 l164 165 29 -17 28 -16 -167 -168 c-151 -151 -189 -198 -136 -170 10 6 89
82 176 170 87 87 160 155 163 151 3 -5 13 -9 23 -9 10 0 25 -8 32 -17 8 -9 9
-14 3 -10 -7 4 -72 -55 -155 -140 -79 -81 -138 -148 -131 -151 17 -5 72 41
195 166 105 107 109 110 119 86 6 -13 14 -22 17 -19 4 2 24 -12 45 -31 20 -19
41 -34 45 -34 5 0 -27 -35 -70 -77 -44 -42 -79 -80 -79 -85 0 -21 27 -2 100
67 l78 75 39 -16 c38 -16 63 -32 32 -21 -15 5 -46 -22 -103 -90 -38 -46 9 -24
73 33 59 54 63 56 91 44 l30 -12 -35 -39 c-56 -62 -43 -68 30 -13 27 22 43 39
36 43 -6 4 18 7 53 6 l64 0 -39 -33 c-40 -34 -49 -52 -27 -52 7 0 155 143 330
317 174 174 319 315 321 312 3 -2 10 -15 17 -28 11 -22 -1 -36 -269 -306 -155
-155 -281 -285 -281 -289 0 -30 71 31 302 261 213 213 271 265 278 253 5 -8
10 -10 11 -5 0 6 4 1 9 -10 7 -17 -28 -56 -228 -257 -130 -131 -233 -240 -230
-244 4 -3 17 0 30 7 37 19 458 441 452 453 -3 6 7 -4 23 -22 l28 -33 -197
-197 c-109 -108 -198 -200 -198 -204 0 -25 43 12 221 188 l198 196 22 -21 23
-21 -162 -164 c-152 -153 -178 -186 -151 -186 6 0 85 73 176 162 111 111 162
167 158 177 -4 9 6 5 21 -9 15 -14 24 -19 20 -12 -7 11 -4 11 12 1 20 -13 19
-15 -27 -64 -26 -27 -92 -94 -146 -147 -55 -54 -96 -100 -92 -104 9 -9 73 36
117 81 l34 35 22 -21 c21 -20 30 -21 95 -15 l71 7 -33 -40 c-62 -78 0 -54 74
28 31 35 107 80 107 65 0 -3 7 1 15 8 22 20 37 31 75 58 39 27 56 43 56 50 0
14 38 60 51 60 7 0 24 7 36 15 13 8 -53 -62 -147 -155 -159 -159 -191 -199
-134 -169 34 18 368 351 362 361 -3 4 0 8 5 8 6 0 13 0 16 0 2 0 19 14 37 30
18 17 38 30 45 30 7 0 13 4 13 9 0 5 12 24 26 41 l27 31 17 -25 16 -26 -228
-227 c-125 -125 -228 -231 -228 -235 0 -26 47 15 246 213 158 158 227 220 238
216 9 -4 16 -14 16 -22 0 -9 4 -14 9 -10 5 3 12 1 16 -5 3 -5 1 -10 -6 -10
-15 0 -379 -365 -379 -380 0 -27 38 5 217 183 l193 192 25 -20 25 -20 -167
-168 c-91 -92 -163 -170 -160 -174 13 -12 85 49 226 191 l143 144 34 -11 34
-12 -150 -150 c-83 -82 -150 -153 -150 -157 0 -25 40 9 185 152 112 111 168
160 183 160 13 0 38 7 57 14 19 8 35 13 35 11 0 -2 -72 -76 -160 -164 -88 -88
-160 -165 -160 -171 0 -5 5 -10 12 -10 16 0 428 412 428 428 0 18 -14 15 -42
-10 -70 -64 -65 -63 -63 -13 2 39 9 52 54 99 47 51 62 76 44 76 -4 0 -36 -28
-70 -62 l-63 -62 -23 22 -24 23 68 65 c71 69 126 140 116 150 -3 3 -47 -34
-97 -82 -51 -49 -96 -89 -102 -89 -5 0 -16 15 -24 33 -7 18 -10 30 -5 28 10
-6 231 217 231 233 0 25 -26 6 -127 -94 -58 -58 -109 -105 -113 -105 -7 0 -20
34 -20 54 0 5 58 68 130 141 118 120 145 155 122 155 -4 0 -65 -58 -135 -128
-124 -125 -137 -133 -137 -81 0 10 -4 19 -10 19 -5 0 -10 5 -10 11 0 5 4 8 9
5 10 -6 262 248 280 282 29 55 -8 27 -150 -115 l-150 -150 -15 30 -16 29 171
173 c94 95 171 177 171 184 0 28 -34 0 -193 -159 -160 -160 -187 -183 -187
-161 0 5 -10 13 -21 16 -16 6 -18 9 -8 15 7 5 17 6 21 4 4 -3 8 0 8 5 0 6 19
23 42 38 24 16 53 39 65 52 13 13 23 20 23 15 0 -5 6 2 13 16 8 14 19 24 25
23 7 -2 11 3 9 10 -1 6 4 11 10 10 7 -2 12 3 10 10 -1 6 4 11 11 9 8 -1 11 2
8 7 -4 5 -1 13 6 18 7 4 22 25 33 46 11 20 23 37 27 37 5 0 8 6 8 14 0 7 7 19
15 26 8 6 13 17 12 23 -1 6 4 11 12 12 18 0 57 52 47 62 -4 5 -15 -1 -23 -12
-16 -20 -16 -20 -8 0 29 80 35 120 35 233 0 71 -5 132 -11 144 -9 16 -8 23 2
29 11 7 9 12 -8 24 -13 9 -23 25 -23 35 0 10 -4 22 -10 25 -5 3 -10 12 -10 18
0 8 3 8 9 -1 6 -11 13 -7 30 14 11 14 21 31 21 36 0 10 -36 -7 -45 -22 -11
-18 -22 -11 -43 24 -13 22 -16 33 -8 30 15 -6 96 82 96 104 0 17 -12 9 -82
-57 -21 -19 -38 -29 -38 -22 0 8 -8 19 -17 26 -15 11 -8 21 60 93 70 74 90
102 70 102 -4 0 -42 -34 -85 -77 l-77 -76 -35 29 c-19 16 -35 35 -35 43 -1 8
-4 12 -7 8 -3 -3 -14 2 -25 11 -17 15 -12 22 126 163 80 81 145 156 145 165 0
16 -2 16 -22 -2 -62 -50 -296 -289 -292 -296 3 -4 -11 2 -31 13 l-36 22 190
192 c171 171 208 215 183 215 -4 0 -97 -90 -207 -200 -203 -203 -244 -233
-231 -168 5 25 56 82 215 243 197 199 240 249 227 263 -4 3 -96 -84 -205 -193
-165 -163 -199 -193 -197 -171 2 15 8 32 14 38 6 6 8 17 5 26 -4 10 -2 13 5 8
8 -4 10 -2 6 7 -3 8 0 18 5 22 6 3 9 11 6 16 -4 5 -1 17 5 26 9 15 10 14 4 -7
-4 -17 40 21 146 125 167 166 214 219 208 237 -3 7 -82 -63 -177 -157 l-172
-170 7 52 c6 51 9 54 166 210 88 87 164 166 170 176 28 52 -18 16 -162 -128
-105 -105 -161 -154 -164 -144 -8 26 -12 78 -6 74 9 -6 313 303 329 333 30 56
-10 25 -168 -132 -147 -147 -170 -166 -176 -147 -3 11 -3 26 1 32 4 8 3 9 -4
5 -37 -22 8 27 173 195 102 103 185 195 185 204 0 13 -8 10 -37 -13 -53 -43
-330 -324 -335 -340 -2 -8 -11 3 -21 23 l-18 38 206 207 c183 185 222 230 198
230 -4 0 -102 -93 -217 -207 -115 -115 -205 -202 -202 -195 4 6 3 12 -2 12 -4
0 -19 15 -32 33 -13 17 -17 27 -9 20 13 -10 43 16 185 160 93 95 178 182 189
195 17 21 17 22 0 22 -10 0 -101 -82 -202 -182 l-184 -183 -19 25 -19 25 149
151 c83 83 150 154 150 157 0 26 -50 -12 -180 -140 -110 -107 -147 -149 -138
-155 8 -6 0 -8 -24 -6 -21 2 -35 2 -33 -1 3 -2 -4 -10 -15 -18 -11 -8 -20 -22
-20 -31 0 -10 -87 -104 -194 -211 l-193 -193 -6 39 -7 39 335 334 c184 184
335 338 335 342 0 28 -61 -27 -352 -319 l-327 -328 -4 35 c-3 19 -7 44 -9 55
-3 11 -3 14 -1 7 4 -13 484 456 539 526 21 27 22 32 8 32 -10 0 -137 -119
-283 -265 -249 -247 -267 -263 -279 -244 -7 11 -10 24 -7 29 4 6 2 10 -2 10
-5 0 89 98 210 218 225 224 250 252 222 252 -21 0 -445 -418 -445 -439 -1 -9
-7 -2 -14 14 -7 17 -11 33 -9 38 2 4 0 7 -5 7 -6 0 -27 23 -47 51 -20 28 -32
48 -26 44 9 -5 217 193 275 263 18 20 18 22 2 22 -10 0 -78 -58 -150 -130 -73
-71 -136 -130 -140 -130 -10 0 -36 27 -36 37 0 5 41 49 91 98 98 98 119 125
95 125 -8 0 -62 -46 -120 -101 l-106 -101 -26 17 -26 17 76 77 c42 42 76 80
76 84 0 21 -33 0 -94 -62 -55 -56 -75 -69 -98 -69 -17 1 -32 6 -34 12 -2 6 19
36 47 66 39 41 48 56 35 58 -23 5 -130 -99 -114 -110 7 -4 8 -8 3 -8 -6 0 -20
7 -31 15 -12 8 -24 12 -26 9 -3 -2 -16 0 -29 5 -16 6 -18 10 -8 10 21 1 86 74
71 79 -7 2 -32 -13 -58 -34 l-46 -38 -177 0 -178 -1 28 35 c16 19 25 36 19 38
-14 5 -101 -68 -94 -79 3 -5 -3 -10 -13 -11 -34 -2 -66 -13 -116 -40 -36 -18
-26 -1 33 57 61 60 70 75 47 75 -17 0 -199 -184 -191 -193 4 -4 2 -7 -4 -7 -7
0 -21 -8 -33 -17 -53 -45 -62 -53 -57 -53 3 0 -113 -118 -259 -262 -151 -150
-261 -268 -259 -275 3 -7 4 -13 1 -13 -6 0 -35 62 -35 77 0 7 163 176 362 376
264 264 357 363 344 365 -13 3 -121 -99 -367 -344 -192 -192 -349 -355 -350
-364 0 -8 -7 12 -14 45 -13 57 -20 226 -8 196 4 -9 88 69 239 220 129 129 234
237 234 241 0 26 -49 -16 -247 -214 l-223 -222 7 53 c6 54 6 54 171 220 120
120 160 167 148 169 -25 5 -337 -305 -328 -326 5 -14 4 -15 -10 -2 -9 8 -15
17 -13 20 2 3 -14 4 -35 2 l-39 -4 120 119 c146 143 188 193 163 193 -9 0
-174 -156 -366 -347z m1049 -181 c-254 -254 -327 -333 -327 -352 0 -20 64 39
348 323 335 335 350 348 383 345 19 -2 33 -7 33 -12 -1 -4 -147 -154 -325
-332 -226 -227 -330 -324 -345 -324 -25 0 -76 -24 -69 -32 3 -3 1 -17 -5 -32
-6 -18 -6 -25 0 -21 6 3 10 2 10 -3 0 -6 -6 -12 -14 -15 -18 -7 -31 77 -24
159 l5 56 284 284 284 284 45 0 45 0 -328 -328z m-62 68 c-168 -168 -251 -245
-253 -234 -12 56 7 82 208 284 l200 200 47 0 48 0 -250 -250z m580 216 c11 -8
25 -12 31 -9 7 2 15 -1 20 -8 5 -8 3 -10 -6 -4 -8 5 -112 -92 -321 -301 -170
-170 -309 -312 -309 -316 0 -27 58 25 336 303 305 304 311 310 337 298 15 -7
27 -15 27 -18 0 -3 -139 -145 -309 -315 -171 -171 -308 -312 -306 -316 2 -3
-22 7 -53 22 -31 15 -74 28 -94 28 -37 0 -37 1 288 325 179 179 329 325 333
325 4 0 16 -6 26 -14z m-122 -438 l-312 -312 -24 22 -23 22 311 312 310 313
25 -22 26 -23 -313 -312z m359 255 c13 -21 30 -54 38 -75 l16 -38 -213 -212
c-177 -177 -210 -214 -200 -226 10 -13 9 -13 -9 -2 -17 10 -26 10 -50 -1 -23
-11 -30 -23 -35 -54 -3 -22 -7 -36 -8 -30 0 5 -134 -123 -296 -285 -248 -248
-292 -288 -273 -249 13 26 25 46 28 44 3 -2 6 11 7 28 2 26 34 63 190 220 133
132 193 186 206 183 9 -2 15 0 11 5 -5 8 19 14 41 9 6 -1 7 2 3 6 -4 4 0 13
10 21 10 9 11 11 2 7 -13 -7 -13 -5 -2 9 8 10 11 25 7 39 -4 13 -4 19 1 15 9
-9 544 522 544 540 0 7 -3 13 -7 13 -5 0 -127 -119 -273 -265 l-265 -265 -36
10 -37 10 287 289 c157 159 287 289 288 290 1 1 12 -16 25 -36z m-1143 -13
c-6 -16 -14 -30 -18 -30 -4 0 -7 -8 -8 -17 -2 -31 -24 -113 -30 -113 -3 0 -3
10 0 22 4 13 -60 -44 -153 -137 -137 -137 -161 -157 -174 -146 -9 8 -16 21
-16 30 0 12 395 421 407 421 1 0 -3 -13 -8 -30z m1790 -109 l1 -85 -206 -207
c-134 -134 -205 -212 -202 -223 2 -12 62 43 196 177 105 106 192 188 191 183
-1 -20 -45 -106 -51 -100 -4 3 -9 -5 -13 -18 -9 -28 -131 -158 -141 -149 -4 3
-4 0 0 -6 4 -7 -2 -20 -14 -30 -11 -10 -20 -23 -20 -31 0 -7 -4 -11 -8 -8 -15
9 -160 -147 -167 -179 -6 -27 0 -23 65 43 39 40 67 65 62 55 -5 -10 -15 -40
-21 -68 -10 -41 -26 -63 -87 -126 -41 -42 -74 -75 -74 -72 0 2 5 14 12 26 6
12 13 29 14 37 10 64 26 144 34 164 5 13 7 26 4 29 -3 2 1 45 7 93 l12 89 199
201 c156 157 199 206 196 223 -2 18 -36 -12 -200 -177 l-198 -198 0 45 0 46
198 198 c223 223 209 219 211 68z m-570 -69 c12 -27 9 -31 -103 -142 -63 -62
-113 -116 -111 -119 2 -4 -18 -14 -43 -24 -26 -9 -66 -32 -89 -52 -23 -19 -49
-35 -59 -35 -12 0 53 72 181 200 110 110 203 200 206 200 4 0 12 -13 18 -28z
m-1284 -51 c-6 -47 -13 -56 -116 -157 -60 -59 -109 -114 -109 -122 0 -7 -12 1
-27 18 l-26 32 139 139 c76 76 140 139 142 139 2 0 1 -22 -3 -49z m1307 -77
c9 -53 9 -198 -1 -258 -8 -47 -15 -55 -552 -592 -299 -299 -538 -544 -530
-544 8 0 12 -3 9 -6 -7 -6 -88 16 -88 25 0 3 204 210 452 458 369 369 448 453
428 453 -20 0 -123 -98 -480 -455 -362 -362 -450 -455 -431 -455 13 0 22 -2
20 -4 -2 -2 -54 0 -116 3 -61 3 -109 3 -107 -1 3 -5 -6 -7 -20 -6 l-26 2 28
29 c15 16 73 75 129 132 l102 102 87 7 c85 6 125 20 168 59 11 9 23 17 28 17
11 0 46 77 54 117 4 19 9 31 12 28 7 -6 462 445 462 457 0 26 -48 -16 -242
-209 -215 -215 -218 -217 -218 -182 0 19 -6 41 -12 49 -7 8 -9 11 -4 8 5 -4
97 80 205 187 107 107 202 195 211 195 9 0 29 -12 46 -27 16 -16 32 -29 34
-30 3 -1 13 -5 22 -8 9 -4 45 -4 80 -1 84 7 87 8 85 20 -1 6 4 10 11 8 8 -1
11 2 8 7 -4 5 6 24 21 42 16 18 21 29 13 24 -11 -6 -10 -3 3 12 9 11 17 32 17
46 0 22 5 27 24 27 31 0 37 9 41 65 3 33 0 45 -10 45 -28 0 -26 23 4 54 17 18
31 41 31 51 0 15 -12 7 -53 -33 -49 -48 -56 -52 -100 -52 l-47 0 87 88 c49 49
92 88 98 87 5 -1 13 -19 17 -41z m-1398 -195 c-42 -42 -82 -75 -88 -73 -6 2
-17 13 -24 24 -11 18 -2 29 85 118 l98 97 3 -44 c3 -43 1 -46 -74 -122z m2076
84 c-3 -21 -11 -47 -17 -58 -6 -11 -8 -26 -5 -34 2 -8 0 -11 -5 -8 -5 3 -76
-61 -157 -142 -81 -82 -144 -141 -141 -132 4 9 8 23 9 31 5 31 86 171 86 147
0 -4 6 -2 14 5 8 7 12 16 9 21 -2 4 3 7 12 7 9 0 13 5 10 10 -3 6 2 10 11 10
10 0 14 3 11 6 -4 4 11 24 32 45 22 20 36 41 33 45 -4 4 -2 4 4 1 6 -3 30 14
54 38 24 25 45 45 46 45 1 0 -2 -17 -6 -37z m-2030 -310 l-49 -49 -6 38 c-4
21 -11 40 -16 44 -5 3 -9 11 -9 17 0 7 4 6 10 -3 13 -22 100 64 100 99 0 24
-4 22 -53 -27 l-53 -53 -20 22 c-12 15 -14 20 -4 15 9 -4 8 -2 -2 7 -18 14
-25 33 -10 23 5 -3 37 24 73 60 l64 65 12 -105 13 -104 -50 -49z m-383 217 c3
-11 9 -17 14 -14 22 13 5 -14 -32 -52 -30 -30 -40 -48 -35 -60 6 -15 14 -10
54 29 44 43 72 61 57 37 -3 -5 1 -10 10 -10 9 0 14 -4 11 -9 -4 -5 -2 -11 3
-13 6 -1 -19 -33 -54 -69 l-64 -66 -6 31 c-8 36 -24 91 -37 125 -7 20 -4 29
23 58 38 38 49 41 56 13z m2352 -105 c-11 -33 -22 -72 -23 -87 -1 -15 -6 -31
-10 -35 -5 -4 -5 3 -2 17 5 18 -24 -7 -98 -82 -58 -58 -106 -104 -106 -101 0
3 -9 -5 -20 -18 l-19 -24 -1 65 c0 36 4 59 8 53 6 -9 52 32 148 130 76 78 140
142 141 142 1 0 -7 -27 -18 -60z m-1683 -37 c5 -7 2 -8 -7 -3 -8 4 -5 -2 7
-14 l21 -22 -50 -48 c-38 -36 -49 -53 -43 -66 6 -16 14 -11 60 34 42 41 55 49
59 37 4 -9 13 -16 22 -16 8 0 15 -3 15 -7 0 -10 -122 -133 -132 -133 -9 0 -28
61 -38 125 -8 48 -7 51 28 88 39 40 47 43 58 25z m544 -7 c0 -4 15 -13 33 -19
17 -6 24 -10 14 -9 -12 1 -83 -63 -203 -184 -148 -148 -190 -185 -207 -182
-12 3 -34 0 -48 -6 -22 -8 -27 -17 -31 -58 -4 -44 -10 -54 -62 -103 -32 -30
-65 -58 -74 -62 -23 -9 -72 -10 -72 -1 0 13 624 633 637 633 7 0 13 -4 13 -9z
m499 -63 c-7 -29 -12 -62 -11 -73 1 -13 -2 -15 -6 -8 -5 9 -55 -35 -151 -132
-79 -79 -149 -142 -154 -138 -6 3 -7 2 -4 -4 3 -5 -140 -155 -318 -333 -305
-305 -325 -322 -352 -315 -15 3 -30 9 -33 11 -4 5 1032 1050 1039 1047 2 -1
-3 -26 -10 -55z m-1537 5 c7 -16 12 -32 13 -38 0 -5 5 -16 9 -24 5 -8 11 -48
12 -90 2 -42 1 -68 -2 -58 -3 9 -10 15 -15 12 -5 -4 -9 -1 -9 5 0 6 -4 9 -8 6
-4 -2 -16 3 -27 12 -11 9 -18 16 -16 14 12 -7 61 55 61 77 0 24 -2 23 -44 -18
-43 -43 -46 -44 -76 -31 l-31 13 61 63 c35 34 59 67 56 73 -4 6 -5 11 -1 11 3
0 11 -12 17 -27z m271 -45 c4 -29 -1 -39 -44 -83 -67 -69 -68 -108 -1 -42 52
51 67 58 59 27 -3 -13 -1 -18 6 -13 6 4 8 0 4 -10 -3 -9 -2 -19 3 -22 11 -7
40 -106 39 -132 -1 -17 -2 -17 -6 1 -4 15 -15 9 -64 -40 -33 -33 -62 -59 -64
-59 -3 0 -16 17 -31 38 -22 33 -24 42 -15 70 6 18 11 75 12 127 l2 94 39 38
c22 21 43 38 48 38 4 0 10 -15 13 -32z m331 -119 l-129 -129 -11 44 c-5 25 -8
43 -5 41 4 -1 41 33 84 76 43 43 72 79 65 80 -9 0 -10 2 -1 5 7 3 22 0 34 -6
17 -10 20 -9 14 0 -6 10 -1 12 18 8 16 -3 31 0 38 9 7 7 14 11 17 8 4 -3 -52
-64 -124 -136z m898 4 c-6 -15 -13 -40 -16 -55 -3 -14 -35 -54 -71 -89 -47
-45 -65 -69 -65 -88 0 -23 4 -21 60 34 l60 59 0 -32 c0 -19 5 -43 11 -54 8
-15 8 -19 -1 -13 -7 4 -31 -11 -60 -40 -26 -26 -53 -44 -59 -41 -5 4 -13 33
-17 65 -5 46 -11 61 -28 70 -21 12 -17 17 83 116 58 57 107 102 110 100 2 -3
-1 -17 -7 -32z m-1721 -74 l51 -11 -108 -109 c-60 -60 -104 -109 -99 -110 6 0
-1 -5 -15 -11 -14 -6 -29 -10 -35 -9 -5 2 -7 0 -4 -4 8 -8 -63 -80 -76 -76 -5
1 -7 -1 -3 -4 7 -8 -18 -65 -28 -65 -3 0 -2 6 2 13 4 6 -21 -15 -55 -48 l-61
-59 0 46 c0 50 8 80 19 73 4 -2 92 81 197 186 131 131 183 189 169 189 -12 0
-85 -65 -192 -172 -100 -99 -170 -163 -166 -150 3 12 10 22 16 22 6 0 8 3 4 6
-8 8 21 65 42 82 9 8 10 10 3 7 -7 -4 -1 11 15 34 15 22 34 40 41 41 7 0 11 4
8 8 -6 11 40 53 48 45 3 -4 6 0 6 8 0 16 90 66 130 72 14 2 28 5 32 6 4 0 30
-4 59 -10z m2519 -11 c9 -5 10 -8 2 -6 -7 2 -84 -68 -170 -154 -89 -91 -164
-158 -175 -158 -10 0 -15 4 -12 10 3 5 0 7 -8 4 -45 -17 -10 28 123 161 104
103 146 152 137 158 -16 11 84 -3 103 -15z m-273 -136 c-81 -81 -144 -151
-140 -156 7 -7 -47 3 -56 10 -10 9 109 155 121 148 5 -3 7 0 6 8 -2 7 3 12 10
11 6 -2 11 3 10 10 -2 6 3 11 10 9 8 -1 11 2 8 7 -11 17 123 100 164 101 8 0
-52 -67 -133 -148z m276 3 c-43 -45 -81 -83 -85 -84 -4 0 -19 -6 -35 -13 -15
-6 -31 -11 -35 -10 -5 1 -7 -4 -5 -11 1 -6 -4 -11 -11 -9 -8 1 -11 -2 -7 -7 3
-6 -4 -16 -15 -23 -12 -7 -28 -28 -35 -45 -16 -37 -21 -39 -50 -17 -19 14 -13
22 141 174 88 88 158 163 155 167 -3 4 9 -4 27 -16 l33 -23 -78 -83z m-2403
90 c19 -14 27 -25 19 -25 -9 0 -50 -35 -92 -79 l-76 -78 -36 11 -35 11 92 92
c51 51 93 93 93 93 1 0 16 -11 35 -25z m59 -48 c6 -8 7 -17 3 -21 -4 -4 -2 -7
3 -6 33 7 24 -8 -48 -79 -54 -52 -78 -83 -74 -94 4 -11 25 4 84 62 43 42 76
81 74 86 -4 11 0 7 39 -39 14 -16 20 -26 14 -23 -6 4 -48 -31 -93 -78 -76 -77
-83 -82 -90 -62 -5 12 -27 41 -49 64 l-40 41 76 80 c42 45 80 81 83 81 4 1 12
-5 18 -12z m1266 -195 c-3 -3 -5 3 -5 14 0 13 -37 -18 -119 -100 -94 -94 -123
-118 -140 -113 -16 4 -28 -6 -57 -45 -19 -28 -31 -47 -25 -43 6 3 -9 -23 -34
-59 -26 -36 -52 -69 -58 -73 -7 -3 -5 2 3 13 8 11 4 8 -10 -7 -34 -37 -88 -65
-130 -67 -33 -2 -21 12 260 292 l294 295 13 -51 c7 -28 11 -53 8 -56z m28 -51
c3 -14 -23 -47 -97 -120 l-102 -102 -24 33 c-13 18 -20 30 -16 27 3 -3 52 41
108 97 103 105 118 113 131 65z m-1553 -22 c0 -5 5 -7 10 -4 6 3 10 -2 10 -12
0 -10 -36 -54 -81 -99 -51 -51 -80 -88 -77 -98 2 -13 28 8 96 77 50 52 92 90
92 86 0 -5 0 -12 -1 -15 0 -4 4 -10 10 -14 6 -3 13 -16 16 -29 2 -12 0 -19 -4
-17 -4 3 -49 -37 -100 -88 l-92 -94 -14 35 c-8 20 -15 46 -15 60 0 36 31 124
41 117 5 -3 8 -2 7 3 -5 17 14 53 28 53 8 0 12 5 9 10 -3 6 1 10 10 10 8 0 18
7 21 15 7 17 34 21 34 4z m1622 -54 c4 -5 -42 -60 -103 -120 -60 -61 -106
-115 -102 -120 4 -4 2 -5 -5 -1 -7 4 -10 12 -7 17 4 5 2 9 -3 9 -5 0 -17 12
-27 26 -9 15 -13 24 -8 21 5 -3 56 41 113 98 107 107 113 110 142 70z m-1105
-19 c1 -1 -97 -101 -217 -221 -195 -195 -220 -217 -220 -192 0 16 3 26 8 24 6
-5 9 14 12 78 1 13 3 16 8 8 5 -8 64 43 172 152 162 162 165 165 200 159 19
-4 36 -7 37 -8z m1638 4 c17 -4 23 -8 15 -9 -8 0 -78 -64 -155 -142 -118 -118
-135 -139 -110 -134 20 5 72 49 162 139 90 89 136 129 143 122 5 -5 10 -7 10
-3 0 4 14 1 30 -8 30 -15 42 -29 17 -20 -6 3 -64 -47 -127 -110 -98 -98 -111
-115 -90 -115 18 0 54 29 132 107 l107 107 24 -22 24 -22 -98 -97 c-56 -54
-95 -101 -92 -107 4 -6 -4 -4 -18 6 -21 14 -49 16 -165 14 -76 -2 -152 -8
-167 -15 -16 -6 -32 -11 -36 -11 -4 0 67 74 158 165 170 169 173 171 236 155z
m-1775 -7 c0 -4 -61 -69 -135 -144 -121 -122 -161 -147 -103 -65 11 16 14 25
7 21 -8 -5 -6 0 4 12 9 11 17 25 17 31 0 7 7 12 16 12 8 0 13 4 10 9 -3 4 14
26 37 48 39 36 54 46 82 53 6 1 19 9 30 16 21 15 35 18 35 7z m1407 -20 c59
-4 89 -9 77 -14 -10 -4 -84 -73 -163 -153 l-144 -145 -30 15 -30 16 134 134
c110 110 130 134 115 140 -15 6 -47 -21 -147 -123 l-129 -129 -22 23 -22 23
115 118 c90 93 118 116 131 109 10 -4 61 -10 115 -14z m81 -140 c-92 -93 -176
-169 -185 -169 -10 -1 -30 -5 -45 -9 -16 -4 -28 -3 -28 2 0 4 67 76 150 158
102 102 146 152 137 157 -7 5 5 8 28 7 22 0 54 4 70 9 17 6 32 11 35 11 3 1
-70 -74 -162 -166z m-1257 145 c36 3 34 1 -127 -159 -90 -89 -161 -166 -158
-171 3 -5 0 -7 -8 -6 -7 2 -12 -3 -10 -10 1 -6 -4 -11 -10 -10 -8 2 -12 -5
-11 -17 1 -11 0 -14 -3 -6 -8 17 -204 -176 -204 -201 0 -10 4 -18 8 -18 4 0
45 39 91 86 66 70 79 80 67 53 -8 -19 -17 -50 -20 -69 -5 -27 -23 -52 -71
-100 -37 -37 -65 -73 -65 -84 0 -16 15 -6 65 44 l65 64 0 -36 c0 -20 3 -45 7
-55 3 -10 2 -15 -2 -10 -5 4 -34 -18 -66 -49 -49 -48 -57 -53 -63 -37 -10 23
-21 168 -21 251 l1 62 239 243 c132 133 244 240 250 238 5 -3 25 -4 46 -3z
m2278 -50 c-1 -35 -6 -74 -12 -88 -6 -14 -9 -31 -8 -39 1 -8 -2 -10 -10 -5 -8
4 -10 3 -5 -5 10 -16 -41 -117 -69 -135 -37 -24 -174 -169 -169 -178 3 -4 0
-8 -5 -8 -22 0 -10 41 17 57 28 17 156 154 158 170 0 4 6 21 12 36 7 16 12 33
12 38 0 5 13 22 30 37 16 15 32 41 36 57 l7 30 -25 -23 -25 -23 -6 38 c-6 33
-3 42 25 70 18 18 33 33 35 33 2 0 2 -28 2 -62z m-516 -91 c15 -23 13 -26 -71
-110 l-87 -86 -25 19 -25 19 90 91 c49 49 93 90 96 90 4 0 14 -11 22 -23z
m-663 -316 c0 -6 -5 -13 -12 -17 -7 -4 -8 -3 -4 4 4 7 3 12 -2 12 -6 0 -12 -6
-15 -14 -3 -8 -22 -22 -41 -31 -20 -10 -36 -22 -36 -27 0 -5 -4 -6 -10 -3 -5
3 -10 1 -10 -5 0 -6 -5 -8 -12 -4 -6 4 -8 3 -4 -4 3 -6 -5 -19 -19 -30 -13
-11 -21 -22 -18 -26 3 -3 1 -6 -5 -6 -7 0 -12 -7 -12 -16 0 -8 -4 -13 -8 -10
-4 2 -9 -5 -9 -16 -1 -12 -7 -26 -14 -32 -9 -8 -10 -7 -4 4 4 8 -91 -83 -211
-202 -121 -120 -223 -218 -227 -218 -5 0 5 25 21 55 17 30 26 52 20 49 -37
-23 41 61 246 265 129 129 233 238 230 242 -2 4 1 11 7 15 8 5 10 2 5 -7 -4
-8 -1 -6 6 3 9 10 33 18 64 21 27 2 55 4 62 5 6 1 12 -2 12 -7z m-394 -241
l-211 -209 -3 41 c-3 41 -2 43 135 180 116 117 133 138 108 132 -20 -4 -68
-44 -141 -116 l-110 -109 -11 34 c-10 33 -9 35 68 114 l79 80 90 6 c50 4 106
13 125 21 19 8 35 13 35 10 0 -3 10 2 22 10 12 9 23 16 24 16 0 0 -94 -94
-210 -210z m1147 113 l-6 -61 -99 -98 c-55 -55 -93 -87 -83 -71 10 15 15 27
11 27 -3 0 3 14 13 31 11 18 17 37 15 44 -3 6 29 45 71 85 44 43 75 82 75 93
0 11 2 18 4 16 3 -2 2 -32 -1 -66z m-1730 10 c4 -3 -2 -16 -13 -28 -21 -22
-21 -22 -1 -28 12 -3 27 3 38 15 15 16 15 21 3 28 -28 18 -2 10 39 -12 l41
-22 -22 -23 c-16 -18 -19 -26 -10 -35 15 -15 55 19 47 40 -5 12 -3 13 10 2 20
-17 63 -76 48 -67 -5 3 -20 -5 -33 -18 l-23 -25 -46 50 c-41 44 -52 50 -103
58 -32 5 -55 5 -52 0 3 -4 -3 -8 -12 -8 -25 0 -95 -77 -123 -135 -14 -27 -37
-60 -53 -73 -17 -15 -28 -34 -28 -49 0 -23 2 -24 17 -12 15 12 16 12 8 -6 -4
-11 -11 -43 -14 -72 -11 -88 -21 -71 -20 35 0 66 5 106 14 118 7 10 11 24 8
30 -2 7 0 15 6 19 6 3 11 12 11 20 0 8 44 57 98 109 80 78 103 96 128 96 17 0
34 -3 37 -7z m1154 1 c16 -3 40 -15 53 -26 14 -11 20 -17 14 -14 -6 3 -19 -3
-29 -14 -17 -19 -52 -29 -41 -12 2 4 -12 6 -31 4 l-36 -5 34 31 c31 28 32 31
12 32 -13 0 -37 -18 -64 -47 -23 -27 -38 -41 -34 -33 5 8 -35 -30 -88 -85 -53
-56 -96 -109 -97 -120 0 -16 7 -13 39 19 l38 37 -5 -51 c-3 -38 -11 -58 -32
-79 l-28 -28 -11 58 c-18 88 14 194 69 227 11 7 18 17 15 23 -4 5 -3 8 2 7 4
-2 9 1 10 6 3 14 86 58 116 61 10 1 20 5 24 9 8 8 32 8 70 0z m563 -183 c-9
-41 -25 -61 -106 -142 -56 -56 -94 -102 -94 -114 0 -15 18 -1 76 55 42 41 85
89 95 105 10 17 19 28 19 25 0 -16 -41 -115 -51 -120 -6 -4 -11 -11 -11 -16
-1 -20 -18 -54 -28 -54 -5 0 -9 -3 -8 -7 2 -5 -16 -28 -40 -52 -23 -24 -42
-40 -42 -35 0 4 -7 -1 -16 -12 -15 -18 -15 -17 -10 15 3 18 6 84 7 145 1 61 4
101 7 88 6 -21 15 -14 107 80 55 57 102 99 103 95 2 -4 -1 -29 -8 -56z m-1495
-28 c29 -100 24 -111 -140 -274 -99 -98 -154 -145 -171 -147 -15 -2 -24 1 -20
6 3 6 -1 12 -9 16 -11 4 0 19 40 57 41 39 52 55 43 61 -8 6 -2 8 18 6 17 -1
43 5 57 15 14 9 30 17 34 17 18 0 81 73 76 88 -5 11 -3 13 7 7 8 -5 11 -4 7 1
-3 6 -7 38 -9 73 -1 34 -8 67 -15 73 -14 12 -18 32 -4 24 4 -3 18 6 31 19 13
13 26 22 31 20 4 -3 15 -31 24 -62z m499 32 c-7 -19 -14 -47 -14 -62 0 -23
-48 -77 -289 -317 -196 -196 -293 -286 -301 -281 -9 6 -11 4 -5 -5 5 -7 -3 -5
-18 6 l-26 19 332 336 c183 185 333 337 334 338 1 0 -5 -15 -13 -34z m-1170
-87 c10 -20 16 -58 16 -106 0 -67 -3 -77 -28 -106 -25 -29 -30 -31 -43 -17 -8
9 -13 19 -12 23 2 5 -4 8 -12 8 -8 0 8 21 35 46 29 27 50 56 50 68 0 17 -10
10 -55 -34 -30 -29 -56 -52 -57 -49 -32 51 -33 48 32 114 35 35 59 68 56 74
-4 6 -5 11 -2 11 2 0 12 -14 20 -32z m1170 -121 c4 -16 3 -26 -2 -23 -4 2
-129 -116 -278 -265 l-269 -269 -7 37 -6 38 271 272 c212 213 273 269 278 255
3 -9 9 -30 13 -45z m297 -74 l29 -17 -36 -37 c-54 -55 -33 -72 22 -18 24 23
41 46 38 51 -3 4 7 3 21 -2 15 -6 37 -10 50 -10 20 0 15 -8 -38 -59 l-60 -58
-34 19 c-18 11 -47 38 -65 61 -18 23 -28 38 -21 34 7 -4 21 5 35 22 13 17 25
30 26 30 2 1 17 -7 33 -16z"/>
<path d="M909 3203 c-229 -227 -289 -292 -289 -312 0 -22 45 19 276 249 300
300 346 350 319 350 -10 0 -147 -129 -306 -287z"/>
<path d="M171 825 c-140 -143 -181 -195 -154 -195 13 0 352 343 347 352 -13
21 -42 -3 -193 -157z"/>
<path d="M394 228 c-122 -123 -213 -223 -206 -225 19 -7 71 39 271 240 162
163 196 207 162 207 -4 0 -106 -100 -227 -222z"/>
</g>
</svg>
