<?xml version="1.0" encoding="utf-8"?>
<svg xmlns="http://www.w3.org/2000/svg" xmlns:xlink="http://www.w3.org/1999/xlink" style="margin: auto; background: none; display: block; shape-rendering: auto;" width="150px" height="150px" viewBox="0 0 100 100" preserveAspectRatio="xMidYMid">
<g transform="translate(50 50)">
<g transform="rotate(6.28174)">
<animateTransform attributeName="transform" type="rotate" values="0;45" keyTimes="0;1" dur="0.2857142857142857s" repeatCount="indefinite"></animateTransform><path d="M20.266968199511243 -5.5 L28.266968199511243 -5.5 L28.266968199511243 5.5 L20.266968199511243 5.5 A21 21 0 0 1 18.219997944492523 10.441823351440503 L18.219997944492523 10.441823351440503 L23.876852193984902 16.09867760093288 L16.098677600932884 23.876852193984902 L10.441823351440505 18.219997944492523 A21 21 0 0 1 5.5 20.266968199511243 L5.5 20.266968199511243 L5.500000000000001 28.266968199511243 L-5.499999999999996 28.266968199511243 L-5.4999999999999964 20.266968199511243 A21 21 0 0 1 -10.441823351440501 18.219997944492526 L-10.441823351440501 18.219997944492526 L-16.09867760093288 23.876852193984906 L-23.876852193984902 16.098677600932884 L-18.219997944492523 10.441823351440505 A21 21 0 0 1 -20.266968199511243 5.500000000000002 L-20.266968199511243 5.500000000000002 L-28.266968199511243 5.500000000000003 L-28.266968199511243 -5.499999999999995 L-20.266968199511243 -5.499999999999996 A21 21 0 0 1 -18.219997944492526 -10.441823351440501 L-18.219997944492526 -10.441823351440501 L-23.876852193984906 -16.09867760093288 L-16.098677600932877 -23.87685219398491 L-10.441823351440497 -18.21999794449253 A21 21 0 0 1 -5.500000000000011 -20.26696819951124 L-5.500000000000011 -20.26696819951124 L-5.500000000000012 -28.26696819951124 L5.500000000000002 -28.26696819951124 L5.5000000000000036 -20.26696819951124 A21 21 0 0 1 10.441823351440492 -18.21999794449253 L10.441823351440492 -18.21999794449253 L16.09867760093287 -23.87685219398491 L23.876852193984906 -16.09867760093288 L18.219997944492526 -10.4418233514405 A21 21 0 0 1 20.26696819951124 -5.500000000000013 M0 -13A13 13 0 1 0 0 13 A13 13 0 1 0 0 -13" fill="#9cdcfe"></path></g></g>
<!-- [ldio] generated by https://loading.io/ --></svg>